<svg xmlns="http://www.w3.org/2000/svg" viewBox="0 0 512 512"><path fill="currentColor" d="M256 12.875c-43.51 3.51-125.22 21.03-181.72 40.594v15.938c0 148.06 63.882 231.29 119.53 293.75 41.597 46.69 82.5 73.07 101.37 84.47l.813.5v71h32c0-8.625 0-143.875 0-152.5l-.813-.5c-18.875-11.39-59.78-37.78-101.38-84.47-55.65-62.46-119.53-145.69-119.53-293.75v-10.43c55.33-19.18 135.1-36.31 181.72-39.75v-24.84zm0 24.84c46.618 3.44 126.38 20.57 181.72 39.75v304.18c0 148.07-63.873 231.3-119.53 293.75-41.604 46.69-82.51 73.08-101.38 84.47l-.813.5v-24.84c18.875-11.4 59.78-37.78 101.38-84.47 55.65-62.45 119.53-145.68 119.53-293.75V69.41c-56.51-19.56-138.22-37.08-181.72-40.59v-31.1zm-181.72 56.53V261.22c45.23 88.58 135.25 106.31 181.72 109.5v-31c-43.58-3.52-126.11-21.77-181.72-78.5v-204.09zm363.44 0v204.09c-55.61 56.73-138.14 74.98-181.72 78.5v31c46.47-3.19 136.49-20.91 181.72-109.5V94.24zM256 370.72c43.51 6.31 125.22 34.03 181.72 60.59v47.81h-32c0-8.62 0-21.5 0-30.12-55.34-26.04-135.1-50.62-181.72-54.38v-23.9zm0 23.9c46.618 3.76 126.38 28.34 181.72 54.38v30.12c0 26.56-63.873 54.31-119.53 71.87-41.61 13.13-82.51 18.06-101.38 19.47l-.81.1v-23.85c18.87-1.4 59.77-6.33 101.38-19.46 55.65-17.56 119.53-45.31 119.53-71.87v-60.84zm-181.72 36.69v60.84c45.23 25.12 135.26 31.31 181.72 32.5v-31.09c-43.58 0-126.11-5.75-181.72-62.25zm363.44 0c-55.61 56.5-138.14 62.25-181.72 62.25v31.09c46.46-1.19 136.49-7.38 181.72-32.5v-60.84z"/></svg>
